<?xml version="1.0" encoding="UTF-8" standalone="no"?>
<!DOCTYPE svg PUBLIC "-//W3C//DTD SVG 1.1//EN"
 "http://www.w3.org/Graphics/SVG/1.1/DTD/svg11.dtd">
<!-- Generated by graphviz version 5.0.0 (20220707.1540)
 -->
<!-- Title: UmlClassDiagram Pages: 1 -->
<svg width="2825pt" height="1190pt"
 viewBox="0.00 0.00 2824.73 1190.40" xmlns="http://www.w3.org/2000/svg" xmlns:xlink="http://www.w3.org/1999/xlink">
<g id="graph0" class="graph" transform="scale(1 1) rotate(0) translate(4 1186.4)">
<title>UmlClassDiagram</title>
<polygon fill="white" stroke="transparent" points="-4,4 -4,-1186.4 2820.73,-1186.4 2820.73,4 -4,4"/>
<!-- 0 -->
<g id="node1" class="node">
<title>0</title>
<polygon fill="#f2f2f2" stroke="black" points="1338.7,-113.7 1338.7,-280.9 1816.2,-280.9 1816.2,-113.7 1338.7,-113.7"/>
<text text-anchor="middle" x="1577.45" y="-264.3" font-family="Times,serif" font-size="14.00">RuleEngine</text>
<text text-anchor="middle" x="1577.45" y="-247.5" font-family="Times,serif" font-size="14.00">src/RuleEngine.sol</text>
<polyline fill="none" stroke="black" points="1338.7,-239.3 1816.2,-239.3 "/>
<text text-anchor="start" x="1346.7" y="-222.7" font-family="Times,serif" font-size="14.00">Internal:</text>
<text text-anchor="start" x="1346.7" y="-205.9" font-family="Times,serif" font-size="14.00"> &#160;&#160;&#160;_msgSender(): (sender: address)</text>
<text text-anchor="start" x="1346.7" y="-189.1" font-family="Times,serif" font-size="14.00"> &#160;&#160;&#160;_msgData(): bytes</text>
<text text-anchor="start" x="1346.7" y="-172.3" font-family="Times,serif" font-size="14.00">External:</text>
<text text-anchor="start" x="1346.7" y="-155.5" font-family="Times,serif" font-size="14.00"> &#160;&#160;&#160;operateOnTransfer(from: address, to: address, amount: uint256): (isValid: bool)</text>
<text text-anchor="start" x="1346.7" y="-138.7" font-family="Times,serif" font-size="14.00">Public:</text>
<text text-anchor="start" x="1346.7" y="-121.9" font-family="Times,serif" font-size="14.00"> &#160;&#160;&#160;constructor(admin: address, forwarderIrrevocable: address)</text>
</g>
<!-- 5 -->
<g id="node6" class="node">
<title>5</title>
<polygon fill="#f2f2f2" stroke="black" points="591.72,-519.1 591.72,-669.5 849.18,-669.5 849.18,-519.1 591.72,-519.1"/>
<text text-anchor="middle" x="720.45" y="-652.9" font-family="Times,serif" font-size="14.00">&lt;&lt;Abstract&gt;&gt;</text>
<text text-anchor="middle" x="720.45" y="-636.1" font-family="Times,serif" font-size="14.00">MetaTxModuleStandalone</text>
<text text-anchor="middle" x="720.45" y="-619.3" font-family="Times,serif" font-size="14.00">src/modules/MetaTxModuleStandalone.sol</text>
<polyline fill="none" stroke="black" points="591.72,-611.1 849.18,-611.1 "/>
<text text-anchor="start" x="599.72" y="-594.5" font-family="Times,serif" font-size="14.00">Internal:</text>
<text text-anchor="start" x="599.72" y="-577.7" font-family="Times,serif" font-size="14.00"> &#160;&#160;&#160;_msgSender(): (sender: address)</text>
<text text-anchor="start" x="599.72" y="-560.9" font-family="Times,serif" font-size="14.00"> &#160;&#160;&#160;_msgData(): bytes</text>
<text text-anchor="start" x="599.72" y="-544.1" font-family="Times,serif" font-size="14.00">Public:</text>
<text text-anchor="start" x="599.72" y="-527.3" font-family="Times,serif" font-size="14.00"> &#160;&#160;&#160;constructor(trustedForwarder: address)</text>
</g>
<!-- 0&#45;&gt;5 -->
<g id="edge3" class="edge">
<title>0&#45;&gt;5</title>
<path fill="none" stroke="black" d="M1491.31,-280.93C1442.3,-322.67 1377.44,-369.64 1310.45,-394.6 1121.19,-465.11 1037.05,-338.21 857.45,-430.6 828.34,-445.58 802.96,-469.7 782.21,-494.83"/>
<polygon fill="none" stroke="black" points="773.64,-488.75 763.78,-518.97 790.33,-501.5 773.64,-488.75"/>
</g>
<!-- 7 -->
<g id="node8" class="node">
<title>7</title>
<polygon fill="#f2f2f2" stroke="black" points="1836.63,-439.5 1836.63,-749.1 2298.27,-749.1 2298.27,-439.5 1836.63,-439.5"/>
<text text-anchor="middle" x="2067.45" y="-732.5" font-family="Times,serif" font-size="14.00">&lt;&lt;Abstract&gt;&gt;</text>
<text text-anchor="middle" x="2067.45" y="-715.7" font-family="Times,serif" font-size="14.00">RuleEngineOperation</text>
<text text-anchor="middle" x="2067.45" y="-698.9" font-family="Times,serif" font-size="14.00">src/modules/RuleEngineOperation.sol</text>
<polyline fill="none" stroke="black" points="1836.63,-690.7 2298.27,-690.7 "/>
<text text-anchor="start" x="1844.63" y="-674.1" font-family="Times,serif" font-size="14.00">Internal:</text>
<text text-anchor="start" x="1844.63" y="-657.3" font-family="Times,serif" font-size="14.00"> &#160;&#160;_rulesOperation: address[]</text>
<polyline fill="none" stroke="black" points="1836.63,-649.1 2298.27,-649.1 "/>
<text text-anchor="start" x="1844.63" y="-632.5" font-family="Times,serif" font-size="14.00">Internal:</text>
<text text-anchor="start" x="1844.63" y="-615.7" font-family="Times,serif" font-size="14.00"> &#160;&#160;&#160;_operateOnTransfer(_from: address, _to: address, _amount: uint256)</text>
<text text-anchor="start" x="1844.63" y="-598.9" font-family="Times,serif" font-size="14.00">External:</text>
<text text-anchor="start" x="1844.63" y="-582.1" font-family="Times,serif" font-size="14.00"> &#160;&#160;&#160;rulesOperationCount(): uint256</text>
<text text-anchor="start" x="1844.63" y="-565.3" font-family="Times,serif" font-size="14.00"> &#160;&#160;&#160;getRuleOperationIndex(rule_: address): (index: uint256)</text>
<text text-anchor="start" x="1844.63" y="-548.5" font-family="Times,serif" font-size="14.00"> &#160;&#160;&#160;ruleOperation(ruleId: uint256): address</text>
<text text-anchor="start" x="1844.63" y="-531.7" font-family="Times,serif" font-size="14.00"> &#160;&#160;&#160;rulesOperation(): address[]</text>
<text text-anchor="start" x="1844.63" y="-514.9" font-family="Times,serif" font-size="14.00">Public:</text>
<text text-anchor="start" x="1844.63" y="-498.1" font-family="Times,serif" font-size="14.00"> &#160;&#160;&#160;setRulesOperation(rules_: address[]) &lt;&lt;onlyRole&gt;&gt;</text>
<text text-anchor="start" x="1844.63" y="-481.3" font-family="Times,serif" font-size="14.00"> &#160;&#160;&#160;clearRulesOperation() &lt;&lt;onlyRole&gt;&gt;</text>
<text text-anchor="start" x="1844.63" y="-464.5" font-family="Times,serif" font-size="14.00"> &#160;&#160;&#160;addRuleOperation(rule_: address) &lt;&lt;onlyRole&gt;&gt;</text>
<text text-anchor="start" x="1844.63" y="-447.7" font-family="Times,serif" font-size="14.00"> &#160;&#160;&#160;removeRuleOperation(rule_: IRuleOperation, index: uint256) &lt;&lt;onlyRole&gt;&gt;</text>
</g>
<!-- 0&#45;&gt;7 -->
<g id="edge1" class="edge">
<title>0&#45;&gt;7</title>
<path fill="none" stroke="black" d="M1680.17,-281.1C1730.34,-321.55 1792.69,-371.81 1852.6,-420.1"/>
<polygon fill="none" stroke="black" points="1846.34,-428.55 1876.29,-439.2 1859.52,-412.2 1846.34,-428.55"/>
</g>
<!-- 8 -->
<g id="node9" class="node">
<title>8</title>
<polygon fill="#f2f2f2" stroke="black" points="1336.56,-431.1 1336.56,-757.5 1818.34,-757.5 1818.34,-431.1 1336.56,-431.1"/>
<text text-anchor="middle" x="1577.45" y="-740.9" font-family="Times,serif" font-size="14.00">&lt;&lt;Abstract&gt;&gt;</text>
<text text-anchor="middle" x="1577.45" y="-724.1" font-family="Times,serif" font-size="14.00">RuleEngineValidation</text>
<text text-anchor="middle" x="1577.45" y="-707.3" font-family="Times,serif" font-size="14.00">src/modules/RuleEngineValidation.sol</text>
<polyline fill="none" stroke="black" points="1336.56,-699.1 1818.34,-699.1 "/>
<text text-anchor="start" x="1344.56" y="-682.5" font-family="Times,serif" font-size="14.00">Internal:</text>
<text text-anchor="start" x="1344.56" y="-665.7" font-family="Times,serif" font-size="14.00"> &#160;&#160;_rules: address[]</text>
<polyline fill="none" stroke="black" points="1336.56,-657.5 1818.34,-657.5 "/>
<text text-anchor="start" x="1344.56" y="-640.9" font-family="Times,serif" font-size="14.00">External:</text>
<text text-anchor="start" x="1344.56" y="-624.1" font-family="Times,serif" font-size="14.00"> &#160;&#160;&#160;rulesCountValidation(): uint256</text>
<text text-anchor="start" x="1344.56" y="-607.3" font-family="Times,serif" font-size="14.00"> &#160;&#160;&#160;getRuleIndexValidation(rule_: IRuleValidation): (index: uint256)</text>
<text text-anchor="start" x="1344.56" y="-590.5" font-family="Times,serif" font-size="14.00"> &#160;&#160;&#160;ruleValidation(ruleId: uint256): address</text>
<text text-anchor="start" x="1344.56" y="-573.7" font-family="Times,serif" font-size="14.00"> &#160;&#160;&#160;rulesValidation(): address[]</text>
<text text-anchor="start" x="1344.56" y="-556.9" font-family="Times,serif" font-size="14.00"> &#160;&#160;&#160;messageForTransferRestriction(_restrictionCode: uint8): string</text>
<text text-anchor="start" x="1344.56" y="-540.1" font-family="Times,serif" font-size="14.00">Public:</text>
<text text-anchor="start" x="1344.56" y="-523.3" font-family="Times,serif" font-size="14.00"> &#160;&#160;&#160;setRulesValidation(rules_: address[]) &lt;&lt;onlyRole&gt;&gt;</text>
<text text-anchor="start" x="1344.56" y="-506.5" font-family="Times,serif" font-size="14.00"> &#160;&#160;&#160;clearRulesValidation() &lt;&lt;onlyRole&gt;&gt;</text>
<text text-anchor="start" x="1344.56" y="-489.7" font-family="Times,serif" font-size="14.00"> &#160;&#160;&#160;addRuleValidation(rule_: IRuleValidation) &lt;&lt;onlyRole&gt;&gt;</text>
<text text-anchor="start" x="1344.56" y="-472.9" font-family="Times,serif" font-size="14.00"> &#160;&#160;&#160;removeRuleValidation(rule_: IRuleValidation, index: uint256) &lt;&lt;onlyRole&gt;&gt;</text>
<text text-anchor="start" x="1344.56" y="-456.1" font-family="Times,serif" font-size="14.00"> &#160;&#160;&#160;detectTransferRestriction(_from: address, _to: address, _amount: uint256): uint8</text>
<text text-anchor="start" x="1344.56" y="-439.3" font-family="Times,serif" font-size="14.00"> &#160;&#160;&#160;validateTransfer(_from: address, _to: address, _amount: uint256): bool</text>
</g>
<!-- 0&#45;&gt;8 -->
<g id="edge2" class="edge">
<title>0&#45;&gt;8</title>
<path fill="none" stroke="black" d="M1577.45,-281.1C1577.45,-316.14 1577.45,-358.55 1577.45,-400.66"/>
<polygon fill="none" stroke="black" points="1566.95,-400.79 1577.45,-430.79 1587.95,-400.79 1566.95,-400.79"/>
</g>
<!-- 1 -->
<g id="node2" class="node">
<title>1</title>
<polygon fill="#f2f2f2" stroke="black" points="2132.68,-806.9 2132.68,-957.3 2386.22,-957.3 2386.22,-806.9 2132.68,-806.9"/>
<text text-anchor="middle" x="2259.45" y="-940.7" font-family="Times,serif" font-size="14.00">&lt;&lt;Interface&gt;&gt;</text>
<text text-anchor="middle" x="2259.45" y="-923.9" font-family="Times,serif" font-size="14.00">IRuleEngineOperation</text>
<text text-anchor="middle" x="2259.45" y="-907.1" font-family="Times,serif" font-size="14.00">src/interfaces/IRuleEngineOperation.sol</text>
<polyline fill="none" stroke="black" points="2132.68,-898.9 2386.22,-898.9 "/>
<text text-anchor="start" x="2140.68" y="-882.3" font-family="Times,serif" font-size="14.00">External:</text>
<text text-anchor="start" x="2140.68" y="-865.5" font-family="Times,serif" font-size="14.00"> &#160;&#160;&#160;&#160;setRulesOperation(rules_: address[])</text>
<text text-anchor="start" x="2140.68" y="-848.7" font-family="Times,serif" font-size="14.00"> &#160;&#160;&#160;&#160;rulesOperationCount(): uint256</text>
<text text-anchor="start" x="2140.68" y="-831.9" font-family="Times,serif" font-size="14.00"> &#160;&#160;&#160;&#160;ruleOperation(ruleId: uint256): address</text>
<text text-anchor="start" x="2140.68" y="-815.1" font-family="Times,serif" font-size="14.00"> &#160;&#160;&#160;&#160;rulesOperation(): address[]</text>
</g>
<!-- 2 -->
<g id="node3" class="node">
<title>2</title>
<polygon fill="#f2f2f2" stroke="black" points="1449.12,-806.9 1449.12,-957.3 1705.78,-957.3 1705.78,-806.9 1449.12,-806.9"/>
<text text-anchor="middle" x="1577.45" y="-940.7" font-family="Times,serif" font-size="14.00">&lt;&lt;Interface&gt;&gt;</text>
<text text-anchor="middle" x="1577.45" y="-923.9" font-family="Times,serif" font-size="14.00">IRuleEngineValidation</text>
<text text-anchor="middle" x="1577.45" y="-907.1" font-family="Times,serif" font-size="14.00">src/interfaces/IRuleEngineValidation.sol</text>
<polyline fill="none" stroke="black" points="1449.12,-898.9 1705.78,-898.9 "/>
<text text-anchor="start" x="1457.12" y="-882.3" font-family="Times,serif" font-size="14.00">External:</text>
<text text-anchor="start" x="1457.12" y="-865.5" font-family="Times,serif" font-size="14.00"> &#160;&#160;&#160;&#160;setRulesValidation(rules_: address[])</text>
<text text-anchor="start" x="1457.12" y="-848.7" font-family="Times,serif" font-size="14.00"> &#160;&#160;&#160;&#160;rulesCountValidation(): uint256</text>
<text text-anchor="start" x="1457.12" y="-831.9" font-family="Times,serif" font-size="14.00"> &#160;&#160;&#160;&#160;ruleValidation(ruleId: uint256): address</text>
<text text-anchor="start" x="1457.12" y="-815.1" font-family="Times,serif" font-size="14.00"> &#160;&#160;&#160;&#160;rulesValidation(): address[]</text>
</g>
<!-- 3 -->
<g id="node4" class="node">
<title>3</title>
<polygon fill="#f2f2f2" stroke="black" points="2404.17,-832.1 2404.17,-932.1 2816.73,-932.1 2816.73,-832.1 2404.17,-832.1"/>
<text text-anchor="middle" x="2610.45" y="-915.5" font-family="Times,serif" font-size="14.00">&lt;&lt;Interface&gt;&gt;</text>
<text text-anchor="middle" x="2610.45" y="-898.7" font-family="Times,serif" font-size="14.00">IRuleOperation</text>
<text text-anchor="middle" x="2610.45" y="-881.9" font-family="Times,serif" font-size="14.00">src/interfaces/IRuleOperation.sol</text>
<polyline fill="none" stroke="black" points="2404.17,-873.7 2816.73,-873.7 "/>
<text text-anchor="start" x="2412.17" y="-857.1" font-family="Times,serif" font-size="14.00">External:</text>
<text text-anchor="start" x="2412.17" y="-840.3" font-family="Times,serif" font-size="14.00"> &#160;&#160;&#160;&#160;operateOnTransfer(_from: address, _to: address, _amount: uint256)</text>
</g>
<!-- 4 -->
<g id="node5" class="node">
<title>4</title>
<polygon fill="#f2f2f2" stroke="black" points="1030.19,-832.1 1030.19,-932.1 1430.71,-932.1 1430.71,-832.1 1030.19,-832.1"/>
<text text-anchor="middle" x="1230.45" y="-915.5" font-family="Times,serif" font-size="14.00">&lt;&lt;Interface&gt;&gt;</text>
<text text-anchor="middle" x="1230.45" y="-898.7" font-family="Times,serif" font-size="14.00">IRuleValidation</text>
<text text-anchor="middle" x="1230.45" y="-881.9" font-family="Times,serif" font-size="14.00">src/interfaces/IRuleValidation.sol</text>
<polyline fill="none" stroke="black" points="1030.19,-873.7 1430.71,-873.7 "/>
<text text-anchor="start" x="1038.19" y="-857.1" font-family="Times,serif" font-size="14.00">External:</text>
<text text-anchor="start" x="1038.19" y="-840.3" font-family="Times,serif" font-size="14.00"> &#160;&#160;&#160;&#160;canReturnTransferRestrictionCode(_restrictionCode: uint8): bool</text>
</g>
<!-- 6 -->
<g id="node7" class="node">
<title>6</title>
<polygon fill="#f2f2f2" stroke="black" points="1766.2,-1006.7 1766.2,-1181.9 2072.7,-1181.9 2072.7,-1006.7 1766.2,-1006.7"/>
<text text-anchor="middle" x="1919.45" y="-1165.3" font-family="Times,serif" font-size="14.00">&lt;&lt;Abstract&gt;&gt;</text>
<text text-anchor="middle" x="1919.45" y="-1148.5" font-family="Times,serif" font-size="14.00">RuleEngineInvariantStorage</text>
<text text-anchor="middle" x="1919.45" y="-1131.7" font-family="Times,serif" font-size="14.00">src/modules/RuleEngineInvariantStorage.sol</text>
<polyline fill="none" stroke="black" points="1766.2,-1123.5 2072.7,-1123.5 "/>
<text text-anchor="start" x="1774.2" y="-1106.9" font-family="Times,serif" font-size="14.00">Public:</text>
<text text-anchor="start" x="1774.2" y="-1090.1" font-family="Times,serif" font-size="14.00"> &#160;&#160;RULE_ENGINE_ROLE: bytes32</text>
<polyline fill="none" stroke="black" points="1766.2,-1081.9 2072.7,-1081.9 "/>
<text text-anchor="start" x="1774.2" y="-1065.3" font-family="Times,serif" font-size="14.00">Public:</text>
<text text-anchor="start" x="1774.2" y="-1048.5" font-family="Times,serif" font-size="14.00"> &#160;&#160;&#160;&lt;&lt;event&gt;&gt; AddRule(rule: address)</text>
<text text-anchor="start" x="1774.2" y="-1031.7" font-family="Times,serif" font-size="14.00"> &#160;&#160;&#160;&lt;&lt;event&gt;&gt; RemoveRule(rule: address)</text>
<text text-anchor="start" x="1774.2" y="-1014.9" font-family="Times,serif" font-size="14.00"> &#160;&#160;&#160;&lt;&lt;event&gt;&gt; ClearRules(rulesRemoved: address[])</text>
</g>
<!-- 7&#45;&gt;1 -->
<g id="edge5" class="edge">
<title>7&#45;&gt;1</title>
<path fill="none" stroke="black" stroke-dasharray="5,2" d="M2171.04,-749.49C2178.35,-760.38 2185.6,-771.18 2192.63,-781.63"/>
<polygon fill="none" stroke="black" points="2184.07,-787.72 2209.51,-806.77 2201.5,-776.01 2184.07,-787.72"/>
</g>
<!-- 7&#45;&gt;3 -->
<g id="edge6" class="edge">
<title>7&#45;&gt;3</title>
<path fill="none" stroke="black" stroke-dasharray="5,2" d="M2298.52,-716.92C2371.69,-755.43 2448.87,-796.05 2508.15,-827.25"/>
<polygon fill="black" stroke="black" points="2506.65,-830.42 2517.13,-831.98 2509.91,-824.23 2506.65,-830.42"/>
</g>
<!-- 9 -->
<g id="node10" class="node">
<title>9</title>
<polygon fill="#f2f2f2" stroke="black" points="1724.06,-794.5 1724.06,-969.7 2114.84,-969.7 2114.84,-794.5 1724.06,-794.5"/>
<text text-anchor="middle" x="1919.45" y="-953.1" font-family="Times,serif" font-size="14.00">&lt;&lt;Abstract&gt;&gt;</text>
<text text-anchor="middle" x="1919.45" y="-936.3" font-family="Times,serif" font-size="14.00">RuleInternal</text>
<text text-anchor="middle" x="1919.45" y="-919.5" font-family="Times,serif" font-size="14.00">src/modules/RuleInternal.sol</text>
<polyline fill="none" stroke="black" points="1724.06,-911.3 2114.84,-911.3 "/>
<text text-anchor="start" x="1732.06" y="-894.7" font-family="Times,serif" font-size="14.00">Public:</text>
<text text-anchor="start" x="1732.06" y="-877.9" font-family="Times,serif" font-size="14.00"> &#160;&#160;_ruleIsPresent: mapping(address=&gt;bool)</text>
<polyline fill="none" stroke="black" points="1724.06,-869.7 2114.84,-869.7 "/>
<text text-anchor="start" x="1732.06" y="-853.1" font-family="Times,serif" font-size="14.00">Internal:</text>
<text text-anchor="start" x="1732.06" y="-836.3" font-family="Times,serif" font-size="14.00"> &#160;&#160;&#160;addRule(_rules: address[], rule_: address)</text>
<text text-anchor="start" x="1732.06" y="-819.5" font-family="Times,serif" font-size="14.00"> &#160;&#160;&#160;removeRule(_rules: address[], rule_: address, index: uint256)</text>
<text text-anchor="start" x="1732.06" y="-802.7" font-family="Times,serif" font-size="14.00"> &#160;&#160;&#160;getRuleIndex(_rules: address[], rule_: address): (index: uint256)</text>
</g>
<!-- 7&#45;&gt;9 -->
<g id="edge4" class="edge">
<title>7&#45;&gt;9</title>
<path fill="none" stroke="black" d="M1987.6,-749.49C1984.51,-755.47 1981.43,-761.41 1978.39,-767.29"/>
<polygon fill="none" stroke="black" points="1968.95,-762.67 1964.48,-794.14 1987.6,-772.33 1968.95,-762.67"/>
</g>
<!-- 8&#45;&gt;2 -->
<g id="edge8" class="edge">
<title>8&#45;&gt;2</title>
<path fill="none" stroke="black" stroke-dasharray="5,2" d="M1577.45,-757.82C1577.45,-764.05 1577.45,-770.23 1577.45,-776.31"/>
<polygon fill="none" stroke="black" points="1566.95,-776.61 1577.45,-806.61 1587.95,-776.61 1566.95,-776.61"/>
</g>
<!-- 8&#45;&gt;4 -->
<g id="edge9" class="edge">
<title>8&#45;&gt;4</title>
<path fill="none" stroke="black" stroke-dasharray="5,2" d="M1380.38,-757.61C1350.87,-781.92 1322.28,-805.46 1298.13,-825.36"/>
<polygon fill="black" stroke="black" points="1295.61,-822.9 1290.11,-831.96 1300.06,-828.3 1295.61,-822.9"/>
</g>
<!-- 8&#45;&gt;9 -->
<g id="edge7" class="edge">
<title>8&#45;&gt;9</title>
<path fill="none" stroke="black" d="M1771.93,-757.82C1778.79,-763.56 1785.6,-769.25 1792.32,-774.86"/>
<polygon fill="none" stroke="black" points="1785.65,-782.97 1815.41,-794.15 1799.12,-766.86 1785.65,-782.97"/>
</g>
<!-- 9&#45;&gt;6 -->
<g id="edge10" class="edge">
<title>9&#45;&gt;6</title>
<path fill="none" stroke="black" d="M1919.45,-969.81C1919.45,-971.98 1919.45,-974.17 1919.45,-976.36"/>
<polygon fill="none" stroke="black" points="1908.95,-976.45 1919.45,-1006.45 1929.95,-976.45 1908.95,-976.45"/>
</g>
<!-- 10 -->
<g id="node11" class="node">
<title>10</title>
<polygon fill="#f2f2f2" stroke="black" points="0,-544.3 0,-644.3 220.9,-644.3 220.9,-544.3 0,-544.3"/>
<text text-anchor="middle" x="110.45" y="-627.7" font-family="Times,serif" font-size="14.00">&lt;&lt;Interface&gt;&gt;</text>
<text text-anchor="middle" x="110.45" y="-610.9" font-family="Times,serif" font-size="14.00">SanctionsList</text>
<text text-anchor="middle" x="110.45" y="-594.1" font-family="Times,serif" font-size="14.00">src/rules/RuleSanctionList.sol</text>
<polyline fill="none" stroke="black" points="0,-585.9 220.9,-585.9 "/>
<text text-anchor="start" x="8" y="-569.3" font-family="Times,serif" font-size="14.00">External:</text>
<text text-anchor="start" x="8" y="-552.5" font-family="Times,serif" font-size="14.00"> &#160;&#160;&#160;&#160;isSanctioned(addr: address): bool</text>
</g>
<!-- 11 -->
<g id="node12" class="node">
<title>11</title>
<polygon fill="#f2f2f2" stroke="black" points="164.2,-59.3 164.2,-335.3 648.7,-335.3 648.7,-59.3 164.2,-59.3"/>
<text text-anchor="middle" x="406.45" y="-318.7" font-family="Times,serif" font-size="14.00">RuleSanctionList</text>
<text text-anchor="middle" x="406.45" y="-301.9" font-family="Times,serif" font-size="14.00">src/rules/RuleSanctionList.sol</text>
<polyline fill="none" stroke="black" points="164.2,-293.7 648.7,-293.7 "/>
<text text-anchor="start" x="172.2" y="-277.1" font-family="Times,serif" font-size="14.00">Public:</text>
<text text-anchor="start" x="172.2" y="-260.3" font-family="Times,serif" font-size="14.00"> &#160;&#160;sanctionsList: SanctionsList</text>
<polyline fill="none" stroke="black" points="164.2,-252.1 648.7,-252.1 "/>
<text text-anchor="start" x="172.2" y="-235.5" font-family="Times,serif" font-size="14.00">Internal:</text>
<text text-anchor="start" x="172.2" y="-218.7" font-family="Times,serif" font-size="14.00"> &#160;&#160;&#160;_msgSender(): (sender: address)</text>
<text text-anchor="start" x="172.2" y="-201.9" font-family="Times,serif" font-size="14.00"> &#160;&#160;&#160;_msgData(): bytes</text>
<text text-anchor="start" x="172.2" y="-185.1" font-family="Times,serif" font-size="14.00">External:</text>
<text text-anchor="start" x="172.2" y="-168.3" font-family="Times,serif" font-size="14.00"> &#160;&#160;&#160;canReturnTransferRestrictionCode(_restrictionCode: uint8): bool</text>
<text text-anchor="start" x="172.2" y="-151.5" font-family="Times,serif" font-size="14.00"> &#160;&#160;&#160;messageForTransferRestriction(_restrictionCode: uint8): string</text>
<text text-anchor="start" x="172.2" y="-134.7" font-family="Times,serif" font-size="14.00">Public:</text>
<text text-anchor="start" x="172.2" y="-117.9" font-family="Times,serif" font-size="14.00"> &#160;&#160;&#160;constructor(admin: address, forwarderIrrevocable: address)</text>
<text text-anchor="start" x="172.2" y="-101.1" font-family="Times,serif" font-size="14.00"> &#160;&#160;&#160;setSanctionListOracle(sanctionContractOracle_: address) &lt;&lt;onlyRole&gt;&gt;</text>
<text text-anchor="start" x="172.2" y="-84.3" font-family="Times,serif" font-size="14.00"> &#160;&#160;&#160;validateTransfer(_from: address, _to: address, _amount: uint256): (isValid: bool)</text>
<text text-anchor="start" x="172.2" y="-67.5" font-family="Times,serif" font-size="14.00"> &#160;&#160;&#160;detectTransferRestriction(_from: address, _to: address, uint256): uint8</text>
</g>
<!-- 11&#45;&gt;5 -->
<g id="edge11" class="edge">
<title>11&#45;&gt;5</title>
<path fill="none" stroke="black" d="M515.39,-335.34C557.19,-387.93 604.03,-446.84 642.37,-495.08"/>
<polygon fill="none" stroke="black" points="634.41,-501.93 661.29,-518.88 650.85,-488.87 634.41,-501.93"/>
</g>
<!-- 11&#45;&gt;10 -->
<g id="edge13" class="edge">
<title>11&#45;&gt;10</title>
<path fill="none" stroke="black" d="M302.16,-335.35C278.5,-366.6 253.55,-399.7 230.45,-430.6 204.41,-465.44 175.46,-504.67 152.52,-535.89"/>
<polygon fill="black" stroke="black" points="149.62,-533.92 146.52,-544.05 155.26,-538.06 149.62,-533.92"/>
</g>
<!-- 14 -->
<g id="node15" class="node">
<title>14</title>
<polygon fill="#f2f2f2" stroke="black" points="239,-510.7 239,-677.9 573.91,-677.9 573.91,-510.7 239,-510.7"/>
<text text-anchor="middle" x="406.45" y="-661.3" font-family="Times,serif" font-size="14.00">&lt;&lt;Abstract&gt;&gt;</text>
<text text-anchor="middle" x="406.45" y="-644.5" font-family="Times,serif" font-size="14.00">RuleSanctionlistInvariantStorage</text>
<text text-anchor="middle" x="406.45" y="-627.7" font-family="Times,serif" font-size="14.00">src/rules/abstract/RuleSanctionListInvariantStorage.sol</text>
<polyline fill="none" stroke="black" points="239,-619.5 573.91,-619.5 "/>
<text text-anchor="start" x="247" y="-602.9" font-family="Times,serif" font-size="14.00">Public:</text>
<text text-anchor="start" x="247" y="-586.1" font-family="Times,serif" font-size="14.00"> &#160;&#160;SANCTIONLIST_ROLE: bytes32</text>
<text text-anchor="start" x="247" y="-569.3" font-family="Times,serif" font-size="14.00"> &#160;&#160;TEXT_ADDRESS_FROM_IS_SANCTIONED: string</text>
<text text-anchor="start" x="247" y="-552.5" font-family="Times,serif" font-size="14.00"> &#160;&#160;TEXT_ADDRESS_TO_IS_SANCTIONED: string</text>
<text text-anchor="start" x="247" y="-535.7" font-family="Times,serif" font-size="14.00"> &#160;&#160;CODE_ADDRESS_FROM_IS_SANCTIONED: uint8</text>
<text text-anchor="start" x="247" y="-518.9" font-family="Times,serif" font-size="14.00"> &#160;&#160;CODE_ADDRESS_TO_IS_SANCTIONED: uint8</text>
</g>
<!-- 11&#45;&gt;14 -->
<g id="edge12" class="edge">
<title>11&#45;&gt;14</title>
<path fill="none" stroke="black" d="M406.45,-335.34C406.45,-382.78 406.45,-435.36 406.45,-480.61"/>
<polygon fill="none" stroke="black" points="395.95,-480.61 406.45,-510.61 416.95,-480.61 395.95,-480.61"/>
</g>
<!-- 12 -->
<g id="node13" class="node">
<title>12</title>
<polygon fill="#f2f2f2" stroke="black" points="786.99,-0.5 786.99,-394.1 1301.91,-394.1 1301.91,-0.5 786.99,-0.5"/>
<text text-anchor="middle" x="1044.45" y="-377.5" font-family="Times,serif" font-size="14.00">RuleWhitelist</text>
<text text-anchor="middle" x="1044.45" y="-360.7" font-family="Times,serif" font-size="14.00">src/rules/RuleWhitelist.sol</text>
<polyline fill="none" stroke="black" points="786.99,-352.5 1301.91,-352.5 "/>
<text text-anchor="start" x="794.99" y="-335.9" font-family="Times,serif" font-size="14.00">Private:</text>
<text text-anchor="start" x="794.99" y="-319.1" font-family="Times,serif" font-size="14.00"> &#160;&#160;numAddressesWhitelisted: uint256</text>
<text text-anchor="start" x="794.99" y="-302.3" font-family="Times,serif" font-size="14.00">Public:</text>
<text text-anchor="start" x="794.99" y="-285.5" font-family="Times,serif" font-size="14.00"> &#160;&#160;whitelist: mapping(address=&gt;bool)</text>
<polyline fill="none" stroke="black" points="786.99,-277.3 1301.91,-277.3 "/>
<text text-anchor="start" x="794.99" y="-260.7" font-family="Times,serif" font-size="14.00">Internal:</text>
<text text-anchor="start" x="794.99" y="-243.9" font-family="Times,serif" font-size="14.00"> &#160;&#160;&#160;_msgSender(): (sender: address)</text>
<text text-anchor="start" x="794.99" y="-227.1" font-family="Times,serif" font-size="14.00"> &#160;&#160;&#160;_msgData(): bytes</text>
<text text-anchor="start" x="794.99" y="-210.3" font-family="Times,serif" font-size="14.00">External:</text>
<text text-anchor="start" x="794.99" y="-193.5" font-family="Times,serif" font-size="14.00"> &#160;&#160;&#160;numberWhitelistedAddress(): uint256</text>
<text text-anchor="start" x="794.99" y="-176.7" font-family="Times,serif" font-size="14.00"> &#160;&#160;&#160;addressIsWhitelisted(_targetAddress: address): bool</text>
<text text-anchor="start" x="794.99" y="-159.9" font-family="Times,serif" font-size="14.00"> &#160;&#160;&#160;canReturnTransferRestrictionCode(_restrictionCode: uint8): bool</text>
<text text-anchor="start" x="794.99" y="-143.1" font-family="Times,serif" font-size="14.00"> &#160;&#160;&#160;messageForTransferRestriction(_restrictionCode: uint8): string</text>
<text text-anchor="start" x="794.99" y="-126.3" font-family="Times,serif" font-size="14.00">Public:</text>
<text text-anchor="start" x="794.99" y="-109.5" font-family="Times,serif" font-size="14.00"> &#160;&#160;&#160;constructor(admin: address, forwarderIrrevocable: address)</text>
<text text-anchor="start" x="794.99" y="-92.7" font-family="Times,serif" font-size="14.00"> &#160;&#160;&#160;addAddressesToTheWhitelist(listWhitelistedAddress: address[]) &lt;&lt;onlyRole&gt;&gt;</text>
<text text-anchor="start" x="794.99" y="-75.9" font-family="Times,serif" font-size="14.00"> &#160;&#160;&#160;removeAddressesFromTheWhitelist(listWhitelistedAddress: address[]) &lt;&lt;onlyRole&gt;&gt;</text>
<text text-anchor="start" x="794.99" y="-59.1" font-family="Times,serif" font-size="14.00"> &#160;&#160;&#160;addAddressToTheWhitelist(_newWhitelistAddress: address) &lt;&lt;onlyRole&gt;&gt;</text>
<text text-anchor="start" x="794.99" y="-42.3" font-family="Times,serif" font-size="14.00"> &#160;&#160;&#160;removeAddressFromTheWhitelist(_removeWhitelistAddress: address) &lt;&lt;onlyRole&gt;&gt;</text>
<text text-anchor="start" x="794.99" y="-25.5" font-family="Times,serif" font-size="14.00"> &#160;&#160;&#160;validateTransfer(_from: address, _to: address, _amount: uint256): (isValid: bool)</text>
<text text-anchor="start" x="794.99" y="-8.7" font-family="Times,serif" font-size="14.00"> &#160;&#160;&#160;detectTransferRestriction(_from: address, _to: address, uint256): uint8</text>
</g>
<!-- 12&#45;&gt;4 -->
<g id="edge14" class="edge">
<title>12&#45;&gt;4</title>
<path fill="none" stroke="black" stroke-dasharray="5,2" d="M1215.76,-394.21C1221.8,-406.11 1227.1,-418.27 1231.45,-430.6 1275.18,-554.65 1261.02,-710.13 1246.16,-802.21"/>
<polygon fill="none" stroke="black" points="1235.78,-800.62 1240.97,-831.98 1256.47,-804.23 1235.78,-800.62"/>
</g>
<!-- 12&#45;&gt;5 -->
<g id="edge15" class="edge">
<title>12&#45;&gt;5</title>
<path fill="none" stroke="black" d="M883.64,-394.35C854.91,-429.37 826.14,-464.45 800.92,-495.19"/>
<polygon fill="none" stroke="black" points="792.45,-488.97 781.54,-518.83 808.68,-502.29 792.45,-488.97"/>
</g>
<!-- 15 -->
<g id="node16" class="node">
<title>15</title>
<polygon fill="#f2f2f2" stroke="black" points="866.9,-510.7 866.9,-677.9 1222,-677.9 1222,-510.7 866.9,-510.7"/>
<text text-anchor="middle" x="1044.45" y="-661.3" font-family="Times,serif" font-size="14.00">&lt;&lt;Abstract&gt;&gt;</text>
<text text-anchor="middle" x="1044.45" y="-644.5" font-family="Times,serif" font-size="14.00">RuleWhitelistInvariantStorage</text>
<text text-anchor="middle" x="1044.45" y="-627.7" font-family="Times,serif" font-size="14.00">src/rules/abstract/RuleWhitelistInvariantStorage.sol</text>
<polyline fill="none" stroke="black" points="866.9,-619.5 1222,-619.5 "/>
<text text-anchor="start" x="874.9" y="-602.9" font-family="Times,serif" font-size="14.00">Public:</text>
<text text-anchor="start" x="874.9" y="-586.1" font-family="Times,serif" font-size="14.00"> &#160;&#160;WHITELIST_ROLE: bytes32</text>
<text text-anchor="start" x="874.9" y="-569.3" font-family="Times,serif" font-size="14.00"> &#160;&#160;TEXT_ADDRESS_FROM_NOT_WHITELISTED: string</text>
<text text-anchor="start" x="874.9" y="-552.5" font-family="Times,serif" font-size="14.00"> &#160;&#160;TEXT_ADDRESS_TO_NOT_WHITELISTED: string</text>
<text text-anchor="start" x="874.9" y="-535.7" font-family="Times,serif" font-size="14.00"> &#160;&#160;CODE_ADDRESS_FROM_NOT_WHITELISTED: uint8</text>
<text text-anchor="start" x="874.9" y="-518.9" font-family="Times,serif" font-size="14.00"> &#160;&#160;CODE_ADDRESS_TO_NOT_WHITELISTED: uint8</text>
</g>
<!-- 12&#45;&gt;15 -->
<g id="edge16" class="edge">
<title>12&#45;&gt;15</title>
<path fill="none" stroke="black" d="M1044.45,-394.35C1044.45,-423.75 1044.45,-453.18 1044.45,-480.05"/>
<polygon fill="none" stroke="black" points="1033.95,-480.27 1044.45,-510.27 1054.95,-480.27 1033.95,-480.27"/>
</g>
<!-- 13 -->
<g id="node14" class="node">
<title>13</title>
<polygon fill="#f2f2f2" stroke="black" points="489.23,-832.1 489.23,-932.1 795.67,-932.1 795.67,-832.1 489.23,-832.1"/>
<text text-anchor="middle" x="642.45" y="-915.5" font-family="Times,serif" font-size="14.00">&lt;&lt;Abstract&gt;&gt;</text>
<text text-anchor="middle" x="642.45" y="-898.7" font-family="Times,serif" font-size="14.00">RuleCommonInvariantStorage</text>
<text text-anchor="middle" x="642.45" y="-881.9" font-family="Times,serif" font-size="14.00">src/rules/abstract/RuleCommonInvariantStorage.sol</text>
<polyline fill="none" stroke="black" points="489.23,-873.7 795.67,-873.7 "/>
<text text-anchor="start" x="497.23" y="-857.1" font-family="Times,serif" font-size="14.00">Public:</text>
<text text-anchor="start" x="497.23" y="-840.3" font-family="Times,serif" font-size="14.00"> &#160;&#160;TEXT_CODE_NOT_FOUND: string</text>
</g>
<!-- 14&#45;&gt;13 -->
<g id="edge17" class="edge">
<title>14&#45;&gt;13</title>
<path fill="none" stroke="black" d="M474.71,-677.97C508.76,-719.2 549.56,-768.61 582.4,-808.38"/>
<polygon fill="none" stroke="black" points="574.49,-815.29 601.69,-831.74 590.69,-801.92 574.49,-815.29"/>
</g>
<!-- 15&#45;&gt;13 -->
<g id="edge18" class="edge">
<title>15&#45;&gt;13</title>
<path fill="none" stroke="black" d="M957.1,-678.12C926.92,-704.98 892.19,-734 858.45,-758 829.06,-778.91 795.84,-799.28 764.43,-817.25"/>
<polygon fill="none" stroke="black" points="759.05,-808.22 738.01,-832.04 769.31,-826.54 759.05,-808.22"/>
</g>
</g>
</svg>
