<?xml version="1.0" encoding="UTF-8" standalone="no"?>
<!DOCTYPE svg PUBLIC "-//W3C//DTD SVG 1.1//EN"
 "http://www.w3.org/Graphics/SVG/1.1/DTD/svg11.dtd">
<!-- Generated by graphviz version 5.0.0 (20220707.1540)
 -->
<!-- Title: UmlClassDiagram Pages: 1 -->
<svg width="2216pt" height="1445pt"
 viewBox="0.00 0.00 2216.25 1445.00" xmlns="http://www.w3.org/2000/svg" xmlns:xlink="http://www.w3.org/1999/xlink">
<g id="graph0" class="graph" transform="scale(1 1) rotate(0) translate(4 1441)">
<title>UmlClassDiagram</title>
<polygon fill="white" stroke="transparent" points="-4,4 -4,-1441 2212.25,-1441 2212.25,4 -4,4"/>
<!-- 0 -->
<g id="node1" class="node">
<title>0</title>
<polygon fill="#f2f2f2" stroke="black" points="1279.3,-0.5 1279.3,-234.9 1843.21,-234.9 1843.21,-0.5 1279.3,-0.5"/>
<text text-anchor="middle" x="1561.26" y="-218.3" font-family="Times,serif" font-size="14.00">RuleEngine</text>
<text text-anchor="middle" x="1561.26" y="-201.5" font-family="Times,serif" font-size="14.00">src/RuleEngine.sol</text>
<polyline fill="none" stroke="black" points="1279.3,-193.3 1843.21,-193.3 "/>
<text text-anchor="start" x="1287.3" y="-176.7" font-family="Times,serif" font-size="14.00">Internal:</text>
<text text-anchor="start" x="1287.3" y="-159.9" font-family="Times,serif" font-size="14.00"> &#160;&#160;&#160;_msgSender(): (sender: address)</text>
<text text-anchor="start" x="1287.3" y="-143.1" font-family="Times,serif" font-size="14.00"> &#160;&#160;&#160;_msgData(): bytes</text>
<text text-anchor="start" x="1287.3" y="-126.3" font-family="Times,serif" font-size="14.00"> &#160;&#160;&#160;_contextSuffixLength(): uint256</text>
<text text-anchor="start" x="1287.3" y="-109.5" font-family="Times,serif" font-size="14.00">External:</text>
<text text-anchor="start" x="1287.3" y="-92.7" font-family="Times,serif" font-size="14.00"> &#160;&#160;&#160;messageForTransferRestriction(_restrictionCode: uint8): string</text>
<text text-anchor="start" x="1287.3" y="-75.9" font-family="Times,serif" font-size="14.00"> &#160;&#160;&#160;operateOnTransfer(from: address, to: address, amount: uint256): (isValid: bool) &lt;&lt;onlyRole&gt;&gt;</text>
<text text-anchor="start" x="1287.3" y="-59.1" font-family="Times,serif" font-size="14.00">Public:</text>
<text text-anchor="start" x="1287.3" y="-42.3" font-family="Times,serif" font-size="14.00"> &#160;&#160;&#160;constructor(admin: address, forwarderIrrevocable: address, tokenContract: address)</text>
<text text-anchor="start" x="1287.3" y="-25.5" font-family="Times,serif" font-size="14.00"> &#160;&#160;&#160;detectTransferRestriction(_from: address, _to: address, _amount: uint256): uint8</text>
<text text-anchor="start" x="1287.3" y="-8.7" font-family="Times,serif" font-size="14.00"> &#160;&#160;&#160;validateTransfer(_from: address, _to: address, _amount: uint256): bool</text>
</g>
<!-- 5 -->
<g id="node6" class="node">
<title>5</title>
<polygon fill="#f2f2f2" stroke="black" points="0,-1061.5 0,-1161.5 400.51,-1161.5 400.51,-1061.5 0,-1061.5"/>
<text text-anchor="middle" x="200.26" y="-1144.9" font-family="Times,serif" font-size="14.00">&lt;&lt;Interface&gt;&gt;</text>
<text text-anchor="middle" x="200.26" y="-1128.1" font-family="Times,serif" font-size="14.00">IRuleValidation</text>
<text text-anchor="middle" x="200.26" y="-1111.3" font-family="Times,serif" font-size="14.00">src/interfaces/IRuleValidation.sol</text>
<polyline fill="none" stroke="black" points="0,-1103.1 400.51,-1103.1 "/>
<text text-anchor="start" x="8" y="-1086.5" font-family="Times,serif" font-size="14.00">External:</text>
<text text-anchor="start" x="8" y="-1069.7" font-family="Times,serif" font-size="14.00"> &#160;&#160;&#160;&#160;canReturnTransferRestrictionCode(_restrictionCode: uint8): bool</text>
</g>
<!-- 0&#45;&gt;5 -->
<g id="edge4" class="edge">
<title>0&#45;&gt;5</title>
<path fill="none" stroke="black" stroke-dasharray="5,2" d="M1278.94,-138.92C1116.26,-158.38 911.03,-196.56 741.26,-271.4 484.51,-384.58 372.39,-405.7 237.26,-651.6 166.76,-779.88 178.19,-959.47 190.41,-1051.31"/>
<polygon fill="black" stroke="black" points="186.95,-1051.83 191.78,-1061.26 193.88,-1050.88 186.95,-1051.83"/>
</g>
<!-- 6 -->
<g id="node7" class="node">
<title>6</title>
<polygon fill="#f2f2f2" stroke="black" points="1831.53,-393.5 1831.53,-493.5 2088.99,-493.5 2088.99,-393.5 1831.53,-393.5"/>
<text text-anchor="middle" x="1960.26" y="-476.9" font-family="Times,serif" font-size="14.00">&lt;&lt;Abstract&gt;&gt;</text>
<text text-anchor="middle" x="1960.26" y="-460.1" font-family="Times,serif" font-size="14.00">MetaTxModuleStandalone</text>
<text text-anchor="middle" x="1960.26" y="-443.3" font-family="Times,serif" font-size="14.00">src/modules/MetaTxModuleStandalone.sol</text>
<polyline fill="none" stroke="black" points="1831.53,-435.1 2088.99,-435.1 "/>
<text text-anchor="start" x="1839.53" y="-418.5" font-family="Times,serif" font-size="14.00">Public:</text>
<text text-anchor="start" x="1839.53" y="-401.7" font-family="Times,serif" font-size="14.00"> &#160;&#160;&#160;constructor(trustedForwarder: address)</text>
</g>
<!-- 0&#45;&gt;6 -->
<g id="edge3" class="edge">
<title>0&#45;&gt;6</title>
<path fill="none" stroke="black" d="M1776.37,-235.06C1792.76,-246.61 1808.61,-258.76 1823.26,-271.4 1856,-299.64 1886.67,-336.52 1910.65,-368.8"/>
<polygon fill="none" stroke="black" points="1902.33,-375.22 1928.36,-393.46 1919.39,-362.97 1902.33,-375.22"/>
</g>
<!-- 8 -->
<g id="node9" class="node">
<title>8</title>
<polygon fill="#f2f2f2" stroke="black" points="1308.51,-271.9 1308.51,-615.1 1814,-615.1 1814,-271.9 1308.51,-271.9"/>
<text text-anchor="middle" x="1561.26" y="-598.5" font-family="Times,serif" font-size="14.00">&lt;&lt;Abstract&gt;&gt;</text>
<text text-anchor="middle" x="1561.26" y="-581.7" font-family="Times,serif" font-size="14.00">RuleEngineOperation</text>
<text text-anchor="middle" x="1561.26" y="-564.9" font-family="Times,serif" font-size="14.00">src/modules/RuleEngineOperation.sol</text>
<polyline fill="none" stroke="black" points="1308.51,-556.7 1814,-556.7 "/>
<text text-anchor="start" x="1316.51" y="-540.1" font-family="Times,serif" font-size="14.00">Internal:</text>
<text text-anchor="start" x="1316.51" y="-523.3" font-family="Times,serif" font-size="14.00"> &#160;&#160;_rulesOperation: address[]</text>
<polyline fill="none" stroke="black" points="1308.51,-515.1 1814,-515.1 "/>
<text text-anchor="start" x="1316.51" y="-498.5" font-family="Times,serif" font-size="14.00">Internal:</text>
<text text-anchor="start" x="1316.51" y="-481.7" font-family="Times,serif" font-size="14.00"> &#160;&#160;&#160;_clearRulesOperation()</text>
<text text-anchor="start" x="1316.51" y="-464.9" font-family="Times,serif" font-size="14.00"> &#160;&#160;&#160;_removeRuleOperation(rule_: address, index: uint256)</text>
<text text-anchor="start" x="1316.51" y="-448.1" font-family="Times,serif" font-size="14.00"> &#160;&#160;&#160;_operateOnTransfer(_from: address, _to: address, _amount: uint256): (isValid: bool)</text>
<text text-anchor="start" x="1316.51" y="-431.3" font-family="Times,serif" font-size="14.00">External:</text>
<text text-anchor="start" x="1316.51" y="-414.5" font-family="Times,serif" font-size="14.00"> &#160;&#160;&#160;rulesCountOperation(): uint256</text>
<text text-anchor="start" x="1316.51" y="-397.7" font-family="Times,serif" font-size="14.00"> &#160;&#160;&#160;getRuleIndexOperation(rule_: IRuleOperation): (index: uint256)</text>
<text text-anchor="start" x="1316.51" y="-380.9" font-family="Times,serif" font-size="14.00"> &#160;&#160;&#160;ruleOperation(ruleId: uint256): address</text>
<text text-anchor="start" x="1316.51" y="-364.1" font-family="Times,serif" font-size="14.00"> &#160;&#160;&#160;rulesOperation(): address[]</text>
<text text-anchor="start" x="1316.51" y="-347.3" font-family="Times,serif" font-size="14.00">Public:</text>
<text text-anchor="start" x="1316.51" y="-330.5" font-family="Times,serif" font-size="14.00"> &#160;&#160;&#160;setRulesOperation(rules_: address[]) &lt;&lt;onlyRole&gt;&gt;</text>
<text text-anchor="start" x="1316.51" y="-313.7" font-family="Times,serif" font-size="14.00"> &#160;&#160;&#160;clearRulesOperation() &lt;&lt;onlyRole&gt;&gt;</text>
<text text-anchor="start" x="1316.51" y="-296.9" font-family="Times,serif" font-size="14.00"> &#160;&#160;&#160;addRuleOperation(rule_: IRuleOperation) &lt;&lt;onlyRole&gt;&gt;</text>
<text text-anchor="start" x="1316.51" y="-280.1" font-family="Times,serif" font-size="14.00"> &#160;&#160;&#160;removeRuleOperation(rule_: IRuleOperation, index: uint256) &lt;&lt;onlyRole&gt;&gt;</text>
</g>
<!-- 0&#45;&gt;8 -->
<g id="edge1" class="edge">
<title>0&#45;&gt;8</title>
<path fill="none" stroke="black" d="M1561.26,-235.14C1561.26,-237.29 1561.26,-239.45 1561.26,-241.63"/>
<polygon fill="none" stroke="black" points="1550.76,-241.83 1561.26,-271.83 1571.76,-241.83 1550.76,-241.83"/>
</g>
<!-- 9 -->
<g id="node10" class="node">
<title>9</title>
<polygon fill="#f2f2f2" stroke="black" points="749.82,-385.1 749.82,-501.9 1290.7,-501.9 1290.7,-385.1 749.82,-385.1"/>
<text text-anchor="middle" x="1020.26" y="-485.3" font-family="Times,serif" font-size="14.00">&lt;&lt;Abstract&gt;&gt;</text>
<text text-anchor="middle" x="1020.26" y="-468.5" font-family="Times,serif" font-size="14.00">RuleEngineValidation</text>
<text text-anchor="middle" x="1020.26" y="-451.7" font-family="Times,serif" font-size="14.00">src/modules/RuleEngineValidation.sol</text>
<polyline fill="none" stroke="black" points="749.82,-443.5 1290.7,-443.5 "/>
<text text-anchor="start" x="757.82" y="-426.9" font-family="Times,serif" font-size="14.00">Public:</text>
<text text-anchor="start" x="757.82" y="-410.1" font-family="Times,serif" font-size="14.00"> &#160;&#160;&#160;detectTransferRestrictionValidation(_from: address, _to: address, _amount: uint256): uint8</text>
<text text-anchor="start" x="757.82" y="-393.3" font-family="Times,serif" font-size="14.00"> &#160;&#160;&#160;validateTransferValidation(_from: address, _to: address, _amount: uint256): bool</text>
</g>
<!-- 0&#45;&gt;9 -->
<g id="edge2" class="edge">
<title>0&#45;&gt;9</title>
<path fill="none" stroke="black" d="M1360.72,-234.96C1339.93,-247.2 1319.14,-259.51 1299.26,-271.4 1246.34,-303.04 1188.17,-338.59 1138.69,-369.06"/>
<polygon fill="none" stroke="black" points="1132.96,-360.26 1112.94,-384.94 1143.99,-378.13 1132.96,-360.26"/>
</g>
<!-- 1 -->
<g id="node2" class="node">
<title>1</title>
<polygon fill="#f2f2f2" stroke="black" points="1434.49,-740.1 1434.49,-890.5 1688.03,-890.5 1688.03,-740.1 1434.49,-740.1"/>
<text text-anchor="middle" x="1561.26" y="-873.9" font-family="Times,serif" font-size="14.00">&lt;&lt;Interface&gt;&gt;</text>
<text text-anchor="middle" x="1561.26" y="-857.1" font-family="Times,serif" font-size="14.00">IRuleEngineOperation</text>
<text text-anchor="middle" x="1561.26" y="-840.3" font-family="Times,serif" font-size="14.00">src/interfaces/IRuleEngineOperation.sol</text>
<polyline fill="none" stroke="black" points="1434.49,-832.1 1688.03,-832.1 "/>
<text text-anchor="start" x="1442.49" y="-815.5" font-family="Times,serif" font-size="14.00">External:</text>
<text text-anchor="start" x="1442.49" y="-798.7" font-family="Times,serif" font-size="14.00"> &#160;&#160;&#160;&#160;setRulesOperation(rules_: address[])</text>
<text text-anchor="start" x="1442.49" y="-781.9" font-family="Times,serif" font-size="14.00"> &#160;&#160;&#160;&#160;rulesCountOperation(): uint256</text>
<text text-anchor="start" x="1442.49" y="-765.1" font-family="Times,serif" font-size="14.00"> &#160;&#160;&#160;&#160;ruleOperation(ruleId: uint256): address</text>
<text text-anchor="start" x="1442.49" y="-748.3" font-family="Times,serif" font-size="14.00"> &#160;&#160;&#160;&#160;rulesOperation(): address[]</text>
</g>
<!-- 2 -->
<g id="node3" class="node">
<title>2</title>
<polygon fill="#f2f2f2" stroke="black" points="792.71,-756.9 792.71,-873.7 1339.81,-873.7 1339.81,-756.9 792.71,-756.9"/>
<text text-anchor="middle" x="1066.26" y="-857.1" font-family="Times,serif" font-size="14.00">&lt;&lt;Interface&gt;&gt;</text>
<text text-anchor="middle" x="1066.26" y="-840.3" font-family="Times,serif" font-size="14.00">IRuleEngineValidation</text>
<text text-anchor="middle" x="1066.26" y="-823.5" font-family="Times,serif" font-size="14.00">src/interfaces/IRuleEngineValidation.sol</text>
<polyline fill="none" stroke="black" points="792.71,-815.3 1339.81,-815.3 "/>
<text text-anchor="start" x="800.71" y="-798.7" font-family="Times,serif" font-size="14.00">External:</text>
<text text-anchor="start" x="800.71" y="-781.9" font-family="Times,serif" font-size="14.00"> &#160;&#160;&#160;&#160;detectTransferRestrictionValidation(_from: address, _to: address, _amount: uint256): uint8</text>
<text text-anchor="start" x="800.71" y="-765.1" font-family="Times,serif" font-size="14.00"> &#160;&#160;&#160;&#160;validateTransferValidation(_from: address, _to: address, _amount: uint256): (isValid: bool)</text>
</g>
<!-- 3 -->
<g id="node4" class="node">
<title>3</title>
<polygon fill="#f2f2f2" stroke="black" points="418.93,-1036.3 418.93,-1186.7 675.59,-1186.7 675.59,-1036.3 418.93,-1036.3"/>
<text text-anchor="middle" x="547.26" y="-1170.1" font-family="Times,serif" font-size="14.00">&lt;&lt;Interface&gt;&gt;</text>
<text text-anchor="middle" x="547.26" y="-1153.3" font-family="Times,serif" font-size="14.00">IRuleEngineValidationCommon</text>
<text text-anchor="middle" x="547.26" y="-1136.5" font-family="Times,serif" font-size="14.00">src/interfaces/IRuleEngineValidation.sol</text>
<polyline fill="none" stroke="black" points="418.93,-1128.3 675.59,-1128.3 "/>
<text text-anchor="start" x="426.93" y="-1111.7" font-family="Times,serif" font-size="14.00">External:</text>
<text text-anchor="start" x="426.93" y="-1094.9" font-family="Times,serif" font-size="14.00"> &#160;&#160;&#160;&#160;setRulesValidation(rules_: address[])</text>
<text text-anchor="start" x="426.93" y="-1078.1" font-family="Times,serif" font-size="14.00"> &#160;&#160;&#160;&#160;rulesCountValidation(): uint256</text>
<text text-anchor="start" x="426.93" y="-1061.3" font-family="Times,serif" font-size="14.00"> &#160;&#160;&#160;&#160;ruleValidation(ruleId: uint256): address</text>
<text text-anchor="start" x="426.93" y="-1044.5" font-family="Times,serif" font-size="14.00"> &#160;&#160;&#160;&#160;rulesValidation(): address[]</text>
</g>
<!-- 4 -->
<g id="node5" class="node">
<title>4</title>
<polygon fill="#f2f2f2" stroke="black" points="1706.26,-765.3 1706.26,-865.3 2208.25,-865.3 2208.25,-765.3 1706.26,-765.3"/>
<text text-anchor="middle" x="1957.26" y="-848.7" font-family="Times,serif" font-size="14.00">&lt;&lt;Interface&gt;&gt;</text>
<text text-anchor="middle" x="1957.26" y="-831.9" font-family="Times,serif" font-size="14.00">IRuleOperation</text>
<text text-anchor="middle" x="1957.26" y="-815.1" font-family="Times,serif" font-size="14.00">src/interfaces/IRuleOperation.sol</text>
<polyline fill="none" stroke="black" points="1706.26,-806.9 2208.25,-806.9 "/>
<text text-anchor="start" x="1714.26" y="-790.3" font-family="Times,serif" font-size="14.00">External:</text>
<text text-anchor="start" x="1714.26" y="-773.5" font-family="Times,serif" font-size="14.00"> &#160;&#160;&#160;&#160;operateOnTransfer(_from: address, _to: address, _amount: uint256): (isValid: bool)</text>
</g>
<!-- 7 -->
<g id="node8" class="node">
<title>7</title>
<polygon fill="#f2f2f2" stroke="black" points="1215.01,-1244.5 1215.01,-1436.5 1521.51,-1436.5 1521.51,-1244.5 1215.01,-1244.5"/>
<text text-anchor="middle" x="1368.26" y="-1419.9" font-family="Times,serif" font-size="14.00">&lt;&lt;Abstract&gt;&gt;</text>
<text text-anchor="middle" x="1368.26" y="-1403.1" font-family="Times,serif" font-size="14.00">RuleEngineInvariantStorage</text>
<text text-anchor="middle" x="1368.26" y="-1386.3" font-family="Times,serif" font-size="14.00">src/modules/RuleEngineInvariantStorage.sol</text>
<polyline fill="none" stroke="black" points="1215.01,-1378.1 1521.51,-1378.1 "/>
<text text-anchor="start" x="1223.01" y="-1361.5" font-family="Times,serif" font-size="14.00">Public:</text>
<text text-anchor="start" x="1223.01" y="-1344.7" font-family="Times,serif" font-size="14.00"> &#160;&#160;RULE_ENGINE_OPERATOR_ROLE: bytes32</text>
<text text-anchor="start" x="1223.01" y="-1327.9" font-family="Times,serif" font-size="14.00"> &#160;&#160;TOKEN_CONTRACT_ROLE: bytes32</text>
<polyline fill="none" stroke="black" points="1215.01,-1319.7 1521.51,-1319.7 "/>
<text text-anchor="start" x="1223.01" y="-1303.1" font-family="Times,serif" font-size="14.00">Public:</text>
<text text-anchor="start" x="1223.01" y="-1286.3" font-family="Times,serif" font-size="14.00"> &#160;&#160;&#160;&lt;&lt;event&gt;&gt; AddRule(rule: address)</text>
<text text-anchor="start" x="1223.01" y="-1269.5" font-family="Times,serif" font-size="14.00"> &#160;&#160;&#160;&lt;&lt;event&gt;&gt; RemoveRule(rule: address)</text>
<text text-anchor="start" x="1223.01" y="-1252.7" font-family="Times,serif" font-size="14.00"> &#160;&#160;&#160;&lt;&lt;event&gt;&gt; ClearRules(rulesRemoved: address[])</text>
</g>
<!-- 8&#45;&gt;1 -->
<g id="edge6" class="edge">
<title>8&#45;&gt;1</title>
<path fill="none" stroke="black" stroke-dasharray="5,2" d="M1561.26,-615.33C1561.26,-647.43 1561.26,-680.1 1561.26,-709.45"/>
<polygon fill="none" stroke="black" points="1550.76,-709.79 1561.26,-739.79 1571.76,-709.79 1550.76,-709.79"/>
</g>
<!-- 8&#45;&gt;4 -->
<g id="edge7" class="edge">
<title>8&#45;&gt;4</title>
<path fill="none" stroke="black" stroke-dasharray="5,2" d="M1744.19,-615.33C1799.32,-666.82 1856.03,-719.77 1897.06,-758.09"/>
<polygon fill="black" stroke="black" points="1894.84,-760.8 1904.54,-765.07 1899.62,-755.69 1894.84,-760.8"/>
</g>
<!-- 11 -->
<g id="node12" class="node">
<title>11</title>
<polygon fill="#f2f2f2" stroke="black" points="1169.36,-1015.5 1169.36,-1207.5 1567.15,-1207.5 1567.15,-1015.5 1169.36,-1015.5"/>
<text text-anchor="middle" x="1368.26" y="-1190.9" font-family="Times,serif" font-size="14.00">&lt;&lt;Abstract&gt;&gt;</text>
<text text-anchor="middle" x="1368.26" y="-1174.1" font-family="Times,serif" font-size="14.00">RuleInternal</text>
<text text-anchor="middle" x="1368.26" y="-1157.3" font-family="Times,serif" font-size="14.00">src/modules/RuleInternal.sol</text>
<polyline fill="none" stroke="black" points="1169.36,-1149.1 1567.15,-1149.1 "/>
<text text-anchor="start" x="1177.36" y="-1132.5" font-family="Times,serif" font-size="14.00">Public:</text>
<text text-anchor="start" x="1177.36" y="-1115.7" font-family="Times,serif" font-size="14.00"> &#160;&#160;_ruleIsPresent: mapping(address=&gt;bool)</text>
<polyline fill="none" stroke="black" points="1169.36,-1107.5 1567.15,-1107.5 "/>
<text text-anchor="start" x="1177.36" y="-1090.9" font-family="Times,serif" font-size="14.00">Internal:</text>
<text text-anchor="start" x="1177.36" y="-1074.1" font-family="Times,serif" font-size="14.00"> &#160;&#160;&#160;_setRules(rules_: address[])</text>
<text text-anchor="start" x="1177.36" y="-1057.3" font-family="Times,serif" font-size="14.00"> &#160;&#160;&#160;_addRule(_rules: address[], rule_: address)</text>
<text text-anchor="start" x="1177.36" y="-1040.5" font-family="Times,serif" font-size="14.00"> &#160;&#160;&#160;_removeRule(_rules: address[], rule_: address, index: uint256)</text>
<text text-anchor="start" x="1177.36" y="-1023.7" font-family="Times,serif" font-size="14.00"> &#160;&#160;&#160;_getRuleIndex(_rules: address[], rule_: address): (index: uint256)</text>
</g>
<!-- 8&#45;&gt;11 -->
<g id="edge5" class="edge">
<title>8&#45;&gt;11</title>
<path fill="none" stroke="black" d="M1440.98,-615.12C1435.08,-627.17 1429.75,-639.39 1425.26,-651.6 1419.52,-667.2 1397.36,-854.64 1382.42,-985.08"/>
<polygon fill="none" stroke="black" points="1371.94,-984.23 1378.97,-1015.23 1392.81,-986.61 1371.94,-984.23"/>
</g>
<!-- 9&#45;&gt;2 -->
<g id="edge10" class="edge">
<title>9&#45;&gt;2</title>
<path fill="none" stroke="black" stroke-dasharray="5,2" d="M1027.44,-502.28C1034.93,-562.44 1046.74,-657.39 1055.37,-726.76"/>
<polygon fill="none" stroke="black" points="1044.96,-728.15 1059.08,-756.62 1065.8,-725.55 1044.96,-728.15"/>
</g>
<!-- 9&#45;&gt;5 -->
<g id="edge11" class="edge">
<title>9&#45;&gt;5</title>
<path fill="none" stroke="black" stroke-dasharray="5,2" d="M749.6,-491.54C571.34,-528.06 359.88,-583.82 298.26,-651.6 198.69,-761.12 270.89,-834.86 237.26,-979 231.67,-1002.94 224.54,-1029.05 218.04,-1051.66"/>
<polygon fill="black" stroke="black" points="214.62,-1050.86 215.2,-1061.44 221.34,-1052.81 214.62,-1050.86"/>
</g>
<!-- 10 -->
<g id="node11" class="node">
<title>10</title>
<polygon fill="#f2f2f2" stroke="black" points="307.32,-652.1 307.32,-978.5 775.2,-978.5 775.2,-652.1 307.32,-652.1"/>
<text text-anchor="middle" x="541.26" y="-961.9" font-family="Times,serif" font-size="14.00">&lt;&lt;Abstract&gt;&gt;</text>
<text text-anchor="middle" x="541.26" y="-945.1" font-family="Times,serif" font-size="14.00">RuleEngineValidationCommon</text>
<text text-anchor="middle" x="541.26" y="-928.3" font-family="Times,serif" font-size="14.00">src/modules/RuleEngineValidationCommon.sol</text>
<polyline fill="none" stroke="black" points="307.32,-920.1 775.2,-920.1 "/>
<text text-anchor="start" x="315.32" y="-903.5" font-family="Times,serif" font-size="14.00">Internal:</text>
<text text-anchor="start" x="315.32" y="-886.7" font-family="Times,serif" font-size="14.00"> &#160;&#160;_rulesValidation: address[]</text>
<polyline fill="none" stroke="black" points="307.32,-878.5 775.2,-878.5 "/>
<text text-anchor="start" x="315.32" y="-861.9" font-family="Times,serif" font-size="14.00">Internal:</text>
<text text-anchor="start" x="315.32" y="-845.1" font-family="Times,serif" font-size="14.00"> &#160;&#160;&#160;_clearRulesValidation()</text>
<text text-anchor="start" x="315.32" y="-828.3" font-family="Times,serif" font-size="14.00"> &#160;&#160;&#160;_removeRuleValidation(rule_: address, index: uint256)</text>
<text text-anchor="start" x="315.32" y="-811.5" font-family="Times,serif" font-size="14.00">External:</text>
<text text-anchor="start" x="315.32" y="-794.7" font-family="Times,serif" font-size="14.00"> &#160;&#160;&#160;rulesCountValidation(): uint256</text>
<text text-anchor="start" x="315.32" y="-777.9" font-family="Times,serif" font-size="14.00"> &#160;&#160;&#160;getRuleIndexValidation(rule_: IRuleValidation): (index: uint256)</text>
<text text-anchor="start" x="315.32" y="-761.1" font-family="Times,serif" font-size="14.00"> &#160;&#160;&#160;ruleValidation(ruleId: uint256): address</text>
<text text-anchor="start" x="315.32" y="-744.3" font-family="Times,serif" font-size="14.00"> &#160;&#160;&#160;rulesValidation(): address[]</text>
<text text-anchor="start" x="315.32" y="-727.5" font-family="Times,serif" font-size="14.00">Public:</text>
<text text-anchor="start" x="315.32" y="-710.7" font-family="Times,serif" font-size="14.00"> &#160;&#160;&#160;setRulesValidation(rules_: address[]) &lt;&lt;onlyRole&gt;&gt;</text>
<text text-anchor="start" x="315.32" y="-693.9" font-family="Times,serif" font-size="14.00"> &#160;&#160;&#160;clearRulesValidation() &lt;&lt;onlyRole&gt;&gt;</text>
<text text-anchor="start" x="315.32" y="-677.1" font-family="Times,serif" font-size="14.00"> &#160;&#160;&#160;addRuleValidation(rule_: IRuleValidation) &lt;&lt;onlyRole&gt;&gt;</text>
<text text-anchor="start" x="315.32" y="-660.3" font-family="Times,serif" font-size="14.00"> &#160;&#160;&#160;removeRuleValidation(rule_: IRuleValidation, index: uint256) &lt;&lt;onlyRole&gt;&gt;</text>
</g>
<!-- 9&#45;&gt;10 -->
<g id="edge9" class="edge">
<title>9&#45;&gt;10</title>
<path fill="none" stroke="black" d="M945.68,-502.08C899.44,-537.78 837.26,-585.78 775.54,-633.43"/>
<polygon fill="none" stroke="black" points="768.81,-625.36 751.48,-652 781.64,-641.98 768.81,-625.36"/>
</g>
<!-- 9&#45;&gt;11 -->
<g id="edge8" class="edge">
<title>9&#45;&gt;11</title>
<path fill="none" stroke="black" d="M1114.09,-502.12C1210.1,-561.29 1345.77,-645.58 1349.26,-651.6 1380.92,-706.25 1380.67,-868.98 1375.88,-985.1"/>
<polygon fill="none" stroke="black" points="1365.38,-984.93 1374.49,-1015.38 1386.36,-985.89 1365.38,-984.93"/>
</g>
<!-- 10&#45;&gt;3 -->
<g id="edge13" class="edge">
<title>10&#45;&gt;3</title>
<path fill="none" stroke="black" stroke-dasharray="5,2" d="M544.57,-978.89C544.76,-987.92 544.94,-996.88 545.12,-1005.61"/>
<polygon fill="none" stroke="black" points="534.63,-1006.27 545.74,-1036.05 555.63,-1005.85 534.63,-1006.27"/>
</g>
<!-- 10&#45;&gt;5 -->
<g id="edge14" class="edge">
<title>10&#45;&gt;5</title>
<path fill="none" stroke="black" stroke-dasharray="5,2" d="M352.8,-978.89C321.26,-1006.11 290.54,-1032.61 265.03,-1054.61"/>
<polygon fill="black" stroke="black" points="262.58,-1052.11 257.29,-1061.29 267.15,-1057.41 262.58,-1052.11"/>
</g>
<!-- 10&#45;&gt;11 -->
<g id="edge12" class="edge">
<title>10&#45;&gt;11</title>
<path fill="none" stroke="black" d="M775.23,-975.46C777.91,-976.67 780.58,-977.85 783.26,-979 895.91,-1027.5 1028.79,-1059.21 1139.41,-1079.31"/>
<polygon fill="none" stroke="black" points="1137.87,-1089.7 1169.24,-1084.55 1141.51,-1069.02 1137.87,-1089.7"/>
</g>
<!-- 11&#45;&gt;7 -->
<g id="edge15" class="edge">
<title>11&#45;&gt;7</title>
<path fill="none" stroke="black" d="M1368.26,-1207.78C1368.26,-1209.96 1368.26,-1212.15 1368.26,-1214.35"/>
<polygon fill="none" stroke="black" points="1357.76,-1214.46 1368.26,-1244.46 1378.76,-1214.46 1357.76,-1214.46"/>
</g>
</g>
</svg>
